PathFileType	4	(X/Y/Z)	s04c0402.trc
DataRate	CameraRate	NumFrames	NumMarkers	Units	OrigDataRate	OrigDataStartFrame	OrigNumFrames
200	200	4	50	mm	200	250	2000
Frame#	Time	racr			lacr			c7			jug			rlel			rdr			llel			ldr			s2			lic			ric			lasi			rasi			rpsi			lpsi			rgt			lgt			rth1			rth2			rth3			rth4			rlfc			rmfc			rsh1			rsh2			rsh3			rsh4			rlmal			rmmal			rcal			rtoe			rmt5			lth1			lth2			lth4			lth3			llfc			lmfc			lsh1			lsh2			lsh3			lsh4			llmal			lmmal			lcal			ltoe			lmt5			SBIKE			LBIKE			RBIKE			
		X1	Y1	Z1	X2	Y2	Z2	X3	Y3	Z3	X4	Y4	Z4	X5	Y5	Z5	X6	Y6	Z6	X7	Y7	Z7	X8	Y8	Z8	X9	Y9	Z9	X10	Y10	Z10	X11	Y11	Z11	X12	Y12	Z12	X13	Y13	Z13	X14	Y14	Z14	X15	Y15	Z15	X16	Y16	Z16	X17	Y17	Z17	X18	Y18	Z18	X19	Y19	Z19	X20	Y20	Z20	X21	Y21	Z21	X22	Y22	Z22	X23	Y23	Z23	X24	Y24	Z24	X25	Y25	Z25	X26	Y26	Z26	X27	Y27	Z27	X28	Y28	Z28	X29	Y29	Z29	X30	Y30	Z30	X31	Y31	Z31	X32	Y32	Z32	X33	Y33	Z33	X34	Y34	Z34	X35	Y35	Z35	X36	Y36	Z36	X37	Y37	Z37	X38	Y38	Z38	X39	Y39	Z39	X40	Y40	Z40	X41	Y41	Z41	X42	Y42	Z42	X43	Y43	Z43	X44	Y44	Z44	X45	Y45	Z45	X46	Y46	Z46	X47	Y47	Z47	X48	Y48	Z48	X49	Y49	Z49	X50	Y50	Z50	
250	1.2500	479.402490	1479.534921	-129.804272	478.134437	1473.594723	-421.629828	442.868300	1531.291493	-284.164477	474.706523	1384.326418	-278.477450	498.040311	1161.392740	-36.896501	697.601820	942.124710	-96.854242	495.863088	1182.267933	-521.645737	685.416182	939.903735	-488.397687	-52.847236	1184.261095	-285.055627	110.816773	1188.944020	-436.708899	113.509135	1164.018345	-125.999415	141.455396	1140.373147	-395.690422	152.348203	1111.141838	-173.162660	-16.769429	1217.426787	-238.755888	-23.780382	1227.918304	-314.653756	56.140983	1106.948019	-111.404161	58.597092	1124.473588	-484.399678	138.364282	963.791989	-95.560427	197.995269	898.992049	-105.684213	220.432546	816.713082	-110.729934	225.815395	916.599404	-124.524752	271.471880	681.322157	-137.786397	243.828688	665.397344	-248.508436	199.843447	577.306424	-110.448305	172.475633	490.577581	-124.212683	106.325040	435.191819	-127.399347	198.780884	477.839983	-149.801184	34.064046	303.360959	-134.177650	53.302750	305.265078	-220.073910	-43.486248	289.378495	-173.151711	240.336485	191.558630	-161.872254	169.237922	188.395134	-107.111902	118.729103	1070.225796	-492.978456	203.808244	1058.194778	-499.538055	218.719518	1088.402751	-483.805365	273.499934	1003.675540	-512.660914	410.639618	914.762686	-494.864259	450.103166	899.093370	-388.134484	376.424510	802.840684	-510.209547	357.763815	721.344824	-483.295913	298.501759	655.603363	-474.041591	383.665909	714.615670	-454.803565	225.396257	530.796587	-452.593694	227.062078	540.091573	-364.584045	144.290032	511.368687	-404.444868	443.615181	488.422855	-422.683348	369.763549	452.010392	-480.298210	-185.691666	932.673880	-287.021133	-17.164224	79.534648	-485.818195	-17.530021	79.349647	-84.827704	
251	1.2550	479.316400	1479.550765	-129.769402	478.065697	1473.606500	-421.708101	442.742583	1531.380172	-284.132670	474.661443	1384.413026	-278.454535	498.018171	1161.370899	-36.923284	697.584455	942.142036	-96.859447	495.896363	1182.272041	-521.648913	685.450492	939.895154	-488.414221	-52.858582	1184.239285	-285.034208	110.788350	1188.955258	-436.689979	113.437502	1163.993791	-126.083418	141.431182	1140.403941	-395.697168	152.378490	1111.162860	-173.151500	-16.796592	1217.404670	-238.785080	-23.813632	1227.901543	-314.656519	56.139178	1106.953442	-111.427828	58.573790	1124.450405	-484.398894	138.412387	963.794700	-95.595275	198.017011	899.015534	-105.717366	220.460886	816.734575	-110.770645	225.821623	916.598745	-124.578957	271.450811	681.295444	-137.807891	243.793949	665.382343	-248.530353	199.841741	577.301418	-110.475989	172.476980	490.545973	-124.228157	106.335057	435.158619	-127.410630	198.784276	477.824964	-149.815298	34.100345	303.307037	-134.165932	53.325574	305.212619	-220.087643	-43.462422	289.345282	-173.147822	240.376227	191.524466	-161.884869	169.272552	188.395865	-107.101738	118.716635	1070.229133	-492.975323	203.781958	1058.217495	-499.564723	218.695881	1088.400582	-483.821613	273.497519	1003.686623	-512.667371	410.642566	914.791214	-494.899167	450.131259	899.135477	-388.153370	376.409262	802.866812	-510.241351	357.749564	721.392999	-483.312895	298.495820	655.624002	-474.045506	383.658597	714.663640	-454.812994	225.364472	530.838894	-452.602170	227.039368	540.152260	-364.582684	144.263632	511.428399	-404.443354	443.580348	488.451381	-422.681658	369.734665	452.030064	-480.294502	-185.692718	932.660234	-287.005410	-17.175492	79.547210	-485.811005	-17.536906	79.329654	-84.824616	
252	1.2600	479.223032	1479.546673	-129.709893	477.964377	1473.612176	-421.758674	442.605625	1531.506910	-284.130516	474.608720	1384.506593	-278.477470	497.977572	1161.342708	-36.922806	697.579353	942.142161	-96.872992	495.896248	1182.287369	-521.643709	685.457926	939.895940	-488.414726	-52.896521	1184.222913	-285.099645	110.773111	1188.978217	-436.716795	113.495563	1164.076205	-126.027072	141.410584	1140.419283	-395.690900	152.361795	1111.171739	-173.190695	-16.825818	1217.403551	-238.777483	-23.836200	1227.882429	-314.680268	56.141717	1106.977959	-111.429283	58.545229	1124.411230	-484.379850	138.443563	963.803946	-95.625129	198.050013	899.002176	-105.767209	220.493843	816.723301	-110.810698	225.857380	916.606334	-124.637099	271.451367	681.265085	-137.846480	243.772144	665.363133	-248.561330	199.837621	577.250621	-110.504702	172.500941	490.522223	-124.247054	106.336812	435.154245	-127.413684	198.792652	477.804108	-149.846138	34.111224	303.283040	-134.182774	53.338432	305.203042	-220.100995	-43.442447	289.319717	-173.158669	240.413096	191.482547	-161.886196	169.294451	188.346105	-107.091458	118.680692	1070.221821	-492.965277	203.763869	1058.213182	-499.567795	218.680540	1088.414956	-483.823885	273.476763	1003.705611	-512.662369	410.641328	914.818788	-494.909390	450.137913	899.148537	-388.194870	376.414583	802.910189	-510.251948	357.743840	721.410273	-483.331184	298.486692	655.658575	-474.048047	383.652335	714.693395	-454.829020	225.358040	530.870510	-452.592996	227.020266	540.185376	-364.561674	144.245357	511.479693	-404.432319	443.560129	488.465007	-422.675959	369.712603	452.049777	-480.292341	-185.697115	932.668016	-287.012284	-17.181097	79.552243	-485.826112	-17.550948	79.341018	-84.830588	
253	1.2650	479.118393	1479.551239	-129.687858	477.888857	1473.643045	-421.842436	442.475039	1531.612122	-284.131441	474.549678	1384.595409	-278.444615	497.948377	1161.316461	-36.932093	697.576139	942.152633	-96.870345	495.893139	1182.314247	-521.651149	685.435839	939.914437	-488.414471	-52.906494	1184.195388	-285.076511	110.717909	1188.995289	-436.699725	113.497643	1164.101206	-126.028825	141.378142	1140.438494	-395.659876	152.352898	1111.201732	-173.175045	-16.857785	1217.392973	-238.792641	-23.897486	1227.868914	-314.668413	56.169488	1106.964431	-111.436764	58.512579	1124.389572	-484.383725	138.481073	963.811615	-95.645126	198.090358	898.982707	-105.790105	220.504607	816.712890	-110.836282	225.880079	916.574536	-124.669141	271.463117	681.243688	-137.862810	243.754350	665.349518	-248.570836	199.830064	577.228963	-110.513229	172.485748	490.508776	-124.264601	106.344551	435.113004	-127.449013	198.785313	477.782609	-149.858658	34.135824	303.250801	-134.172234	53.370715	305.161353	-220.091961	-43.418036	289.280223	-173.149767	240.460482	191.476976	-161.887463	169.331894	188.311662	-107.099764	118.668776	1070.198398	-492.954965	203.740844	1058.238020	-499.581764	218.644362	1088.424675	-483.845752	273.467318	1003.715872	-512.661859	410.648995	914.849672	-494.932347	450.151217	899.207680	-388.236140	376.408284	802.932614	-510.254655	357.733359	721.457993	-483.354866	298.462595	655.689922	-474.059109	383.639615	714.753064	-454.858353	225.329025	530.935600	-452.613918	226.981427	540.251602	-364.579848	144.217985	511.531354	-404.421235	443.569352	488.502052	-422.728998	369.679525	452.092278	-480.306858	-185.703974	932.668094	-287.015563	-17.176314	79.547103	-485.817300	-17.535383	79.345206	-84.823753	
